<svg width="50" height="38" viewBox="0 0 50 38" fill="none" xmlns="http://www.w3.org/2000/svg">
<path fill-rule="evenodd" clip-rule="evenodd" d="M25.0001 14.5C17.118 14.5 10.1108 20.3175 8.43456 28.505C8.36807 28.8298 8.17742 29.1146 7.90456 29.2965C7.63169 29.4784 7.29895 29.5426 6.97955 29.475C6.66014 29.4073 6.38023 29.2134 6.20139 28.9359C6.02255 28.6583 5.95943 28.3198 6.02592 27.995C6.50296 25.6688 7.35925 23.5066 8.51703 21.5718C8.46162 21.5385 8.40809 21.5004 8.35699 21.4575L0.696545 15.0296C0.167701 14.5859 0.0987214 13.7974 0.542474 13.2686C0.986226 12.7397 1.77467 12.6708 2.30351 13.1145L9.9284 19.5125C11.3267 17.7205 13.0084 16.1892 14.8913 14.9856C14.768 14.8896 14.6609 14.7686 14.5779 14.6249L9.57794 5.96469C9.23276 5.36682 9.43761 4.60233 10.0355 4.25715C10.6333 3.91198 11.3978 4.11682 11.743 4.71469L16.743 13.3749C16.8323 13.5296 16.8848 13.6955 16.9032 13.8623C19.0258 12.8387 21.3406 12.2058 23.7508 12.0423L23.7502 12.0202L23.7501 11.9999V1.99994C23.7501 1.30958 24.3097 0.749939 25.0001 0.749939C25.6904 0.749939 26.2501 1.30958 26.2501 1.99994V11.9999C26.2501 12.0141 26.2498 12.0282 26.2494 12.0423C28.7181 12.2097 31.0868 12.8697 33.2514 13.9376C33.2608 13.7456 33.3148 13.5529 33.4175 13.3749L38.4175 4.71469C38.7627 4.11682 39.5272 3.91198 40.1251 4.25715C40.7229 4.60233 40.9278 5.36682 40.5826 5.96469L35.5826 14.6249C35.4831 14.7972 35.3488 14.9369 35.1937 15.0401C37.0713 16.2541 38.7465 17.7951 40.1366 19.596C40.1559 19.5777 40.1759 19.5598 40.1966 19.5424L47.857 13.1145C48.3859 12.6708 49.1743 12.7397 49.6181 13.2686C50.0618 13.7974 49.9928 14.5859 49.464 15.0296L41.8036 21.4575C41.7158 21.5311 41.6209 21.5906 41.5216 21.6363C42.6599 23.5546 43.5025 25.6946 43.9743 27.995C44.0408 28.3198 43.9777 28.6583 43.7988 28.9359C43.62 29.2134 43.3401 29.4073 43.0207 29.475C42.7013 29.5426 42.3685 29.4784 42.0956 29.2965C41.8228 29.1146 41.6321 28.8298 41.5656 28.505C39.887 20.3175 32.8798 14.5 25.0001 14.5Z" fill="white"/>
<path d="M25.1023 38C22.8208 38 20.6328 37.0781 19.0196 35.4372C17.4063 33.7962 16.5 31.5706 16.5 29.25C16.5 26.9294 17.4063 24.7038 19.0196 23.0628C20.6328 21.4219 22.8208 20.5 25.1023 20.5C27.3838 20.5 29.5718 21.4219 31.185 23.0628C32.7983 24.7038 33.7046 26.9294 33.7046 29.25C33.7046 31.5706 32.7983 33.7962 31.185 35.4372C29.5718 37.0781 27.3838 38 25.1023 38ZM18.9578 29.25C18.9578 30.9076 19.6052 32.4973 20.7575 33.6694C21.9098 34.8415 23.4727 35.5 25.1023 35.5C26.7319 35.5 28.2948 34.8415 29.4471 33.6694C30.5994 32.4973 31.2468 30.9076 31.2468 29.25C31.2468 27.5924 30.5994 26.0027 29.4471 24.8306C28.2948 23.6585 26.7319 23 25.1023 23C23.4727 23 21.9098 23.6585 20.7575 24.8306C19.6052 26.0027 18.9578 27.5924 18.9578 29.25Z" fill="white"/>
</svg>
