<svg width="74" height="56" viewBox="0 0 74 56" fill="none" xmlns="http://www.w3.org/2000/svg">
<path fill-rule="evenodd" clip-rule="evenodd" d="M37 20.7503C25.1768 20.7503 14.666 29.4766 12.1517 41.7578C12.0519 42.2451 11.766 42.6722 11.3567 42.9451C10.9474 43.2179 10.4482 43.3142 9.96914 43.2128C9.49003 43.1114 9.07017 42.8205 8.80191 42.4041C8.53365 41.9878 8.43897 41.4801 8.5387 40.9928C9.2984 37.2882 10.6993 33.8611 12.6019 30.8248C12.5449 30.7909 12.4899 30.7519 12.4375 30.7079L0.946789 21.066C0.417945 20.6223 0.348966 19.8338 0.792718 19.305C1.23647 18.7762 2.02491 18.7072 2.55376 19.1509L14.0128 28.7662C16.3231 25.6757 19.186 23.0766 22.4228 21.1139C22.2147 21.008 22.0339 20.8426 21.9084 20.6253L14.4084 7.63492C14.0632 7.03706 14.2681 6.27257 14.8659 5.92739C15.4638 5.58221 16.2283 5.78706 16.5735 6.38492L24.0735 19.3753C24.2053 19.6037 24.2569 19.8564 24.237 20.1008C27.768 18.2924 31.6743 17.2126 35.7503 17.0285C35.7501 17.0191 35.75 17.0097 35.75 17.0003V2.00031C35.75 1.30995 36.3096 0.750305 37 0.750305C37.6903 0.750305 38.25 1.30995 38.25 2.00031V17.0003L38.2499 17.0149L38.2497 17.0285C42.4256 17.2171 46.4235 18.3459 50.0222 20.2353C49.9676 19.9507 50.0112 19.6459 50.1674 19.3753L57.6674 6.38492C58.0126 5.78706 58.7771 5.58221 59.375 5.92739C59.9728 6.27257 60.1777 7.03706 59.8325 7.63492L52.3325 20.6253C52.1795 20.8903 51.9441 21.0781 51.6774 21.175C54.919 23.1585 57.7818 25.7817 60.0853 28.8982C60.1197 28.8613 60.1568 28.826 60.1965 28.7927L71.6872 19.1509C72.216 18.7072 73.0044 18.7762 73.4482 19.305C73.8919 19.8338 73.823 20.6223 73.2941 21.066L61.8035 30.7079C61.6961 30.7979 61.5781 30.8669 61.4544 30.9151C63.3283 33.929 64.7091 37.3249 65.4612 40.9928C65.561 41.4801 65.4663 41.9878 65.198 42.4041C64.9298 42.8205 64.5099 43.1114 64.0308 43.2128C63.5517 43.3142 63.0526 43.2179 62.6433 42.9451C62.234 42.6722 61.948 42.2451 61.8483 41.7578C59.3303 29.4766 48.8195 20.7503 37 20.7503Z" fill="white"/>
<path d="M37.1534 56C33.7312 56 30.4492 54.6172 28.0293 52.1558C25.6095 49.6944 24.25 46.356 24.25 42.875C24.25 39.394 25.6095 36.0556 28.0293 33.5942C30.4492 31.1328 33.7312 29.75 37.1534 29.75C40.5756 29.75 43.8577 31.1328 46.2775 33.5942C48.6974 36.0556 50.0569 39.394 50.0569 42.875C50.0569 46.356 48.6974 49.6944 46.2775 52.1558C43.8577 54.6172 40.5756 56 37.1534 56ZM27.9367 42.875C27.9367 45.3614 28.9077 47.746 30.6362 49.5041C32.3647 51.2623 34.709 52.25 37.1534 52.25C39.5979 52.25 41.9422 51.2623 43.6706 49.5041C45.3991 47.746 46.3702 45.3614 46.3702 42.875C46.3702 40.3886 45.3991 38.004 43.6706 36.2459C41.9422 34.4877 39.5979 33.5 37.1534 33.5C34.709 33.5 32.3647 34.4877 30.6362 36.2459C28.9077 38.004 27.9367 40.3886 27.9367 42.875Z" fill="white"/>
</svg>
