<svg width="38" height="29" viewBox="0 0 38 29" fill="none" xmlns="http://www.w3.org/2000/svg">
<path fill-rule="evenodd" clip-rule="evenodd" d="M18.9999 10.8743C13.0883 10.8743 7.83288 15.2374 6.57572 21.378C6.52585 21.6217 6.38287 21.8353 6.17821 21.9717C5.97356 22.1081 5.72401 22.1563 5.48446 22.1055C5.2449 22.0548 5.03497 21.9094 4.90084 21.7012C4.76671 21.4931 4.71937 21.2392 4.76924 20.9955C5.12261 19.2724 5.75347 17.6692 6.60563 16.2318C6.56129 16.2051 6.51846 16.1747 6.47757 16.1403L0.732236 11.3194C0.309161 10.9644 0.253977 10.3337 0.608979 9.9106C0.963981 9.48753 1.59474 9.43234 2.01781 9.78735L7.73474 14.5844C8.76192 13.2791 9.99037 12.1602 11.3628 11.2742C11.2714 11.1996 11.1918 11.1075 11.1293 10.9993L7.37933 4.50411C7.10319 4.02581 7.26706 3.41422 7.74536 3.13808C8.22365 2.86194 8.83524 3.02581 9.11138 3.50411L12.8614 9.9993C12.9289 10.1163 12.9702 10.2413 12.9869 10.3674C14.5441 9.62529 16.2379 9.16299 18.0005 9.0354L18 9.01706L17.9999 8.9993V1.4993C17.9999 0.947012 18.4476 0.499298 18.9999 0.499298C19.5522 0.499298 19.9999 0.947012 19.9999 1.4993V8.9993L19.9997 9.01738L19.9992 9.0354C21.8053 9.16613 23.5389 9.64825 25.1276 10.4227C25.1386 10.278 25.1814 10.1334 25.2588 9.9993L29.0088 3.50411C29.285 3.02581 29.8966 2.86194 30.3749 3.13808C30.8532 3.41422 31.017 4.02581 30.7409 4.50411L26.9909 10.9993C26.9161 11.1289 26.8166 11.2354 26.7019 11.3163C28.0699 12.2098 29.2929 13.3354 30.3138 14.6467C30.3278 14.6336 30.3422 14.6207 30.3571 14.6083L36.1024 9.78735C36.5255 9.43234 37.1562 9.48753 37.5113 9.9106C37.8663 10.3337 37.8111 10.9644 37.388 11.3194L31.6427 16.1403C31.5742 16.1978 31.5003 16.2445 31.423 16.2807C32.2605 17.7055 32.8811 19.2918 33.2305 20.9955C33.2804 21.2392 33.233 21.4931 33.0989 21.7012C32.9648 21.9094 32.7548 22.0548 32.5153 22.1055C32.2757 22.1563 32.0262 22.1081 31.8215 21.9717C31.6169 21.8353 31.4739 21.6217 31.424 21.378C30.165 15.2374 24.9096 10.8743 18.9999 10.8743Z" fill="white"/>
<path d="M19.0767 28.5C17.3656 28.5 15.7246 27.8086 14.5147 26.5779C13.3047 25.3472 12.625 23.678 12.625 21.9375C12.625 20.197 13.3047 18.5278 14.5147 17.2971C15.7246 16.0664 17.3656 15.375 19.0767 15.375C20.7878 15.375 22.4288 16.0664 23.6388 17.2971C24.8487 18.5278 25.5284 20.197 25.5284 21.9375C25.5284 23.678 24.8487 25.3472 23.6388 26.5779C22.4288 27.8086 20.7878 28.5 19.0767 28.5ZM14.4683 21.9375C14.4683 23.1807 14.9539 24.373 15.8181 25.2521C16.6823 26.1311 17.8545 26.625 19.0767 26.625C20.2989 26.625 21.4711 26.1311 22.3353 25.2521C23.1996 24.373 23.6851 23.1807 23.6851 21.9375C23.6851 20.6943 23.1996 19.502 22.3353 18.6229C21.4711 17.7439 20.2989 17.25 19.0767 17.25C17.8545 17.25 16.6823 17.7439 15.8181 18.6229C14.9539 19.502 14.4683 20.6943 14.4683 21.9375Z" fill="white"/>
</svg>
