<svg width="207" height="18" viewBox="0 0 207 18" fill="none" xmlns="http://www.w3.org/2000/svg">
<path d="M0 17.7603H3.13673V11.3369C3.16086 6.51931 3.20911 5.05726 3.42627 5.41678C4.27078 6.92676 11.0268 15.6032 11.3646 15.6032C11.7748 15.6032 17.8552 7.86152 18.9651 5.94407L19.5442 4.93742V17.7603H23.4048V0.023968H20.0751L15.9249 5.44075C12.8606 9.41944 11.7024 10.7856 11.4853 10.5699C11.3405 10.4261 9.43431 8.02929 7.23861 5.22503L3.23324 0.143808L0 0V17.7603Z" fill="#3F3F3F"/>
<path d="M64.6651 17.7603H68.767V13.9254C68.767 11.8162 68.8152 10.0905 68.8876 10.0905C68.9359 10.0905 71.4211 11.8162 74.3889 13.9254L79.7938 17.7603H82.8581C84.7643 17.7603 85.8742 17.6644 85.7777 17.5206C85.7053 17.4008 82.8099 15.3395 79.3836 12.9188C75.9332 10.522 73.1101 8.48468 73.1101 8.38881C73.1101 8.29294 75.5954 6.47137 78.6597 4.33821C81.6999 2.20506 84.2576 0.359518 84.3541 0.239678C84.4265 0.119837 83.3407 0.0239653 81.7241 0.0239653H78.9734L68.8876 7.45406L68.7428 0.0239653H64.6651V17.7603Z" fill="#3F3F3F"/>
<path d="M27.7479 17.9998H28.9061C30.016 17.9759 30.1126 17.9039 34.6246 14.117L39.2091 10.2821L39.2815 14.141L39.3297 17.9998H42.2252V5.77612H41.067C39.9088 5.77612 39.8364 5.82405 35.3244 9.58704L30.764 13.398L30.6916 9.58704L30.6434 5.77612H27.7479V17.9998Z" fill="#3F3F3F"/>
<path d="M46.4236 6.06374C46.1341 6.18358 45.7721 6.56706 45.6274 6.87865C45.3378 7.50182 45.2413 15.7708 45.5067 16.7535C45.8204 17.88 46.5684 17.9998 52.8418 17.9998C59.4772 17.9998 59.8874 17.9039 60.2976 16.37C60.6354 15.1956 60.6354 8.55641 60.2976 7.38198C59.8874 5.89596 59.3566 5.77612 52.6729 5.80009C49.2467 5.80009 46.7132 5.91993 46.4236 6.06374ZM57.185 15.3633H48.4987V8.4126H57.185V15.3633Z" fill="#3F3F3F"/>
<path d="M87.1044 17.9998H99.8926V15.3633H90.4825V12.9665H95.7908V10.5697H90.4825V8.4126H99.8926V5.77612H87.1044V17.9998Z" fill="#3F3F3F"/>
<path d="M102.306 17.9998H105.418L105.563 13.5657L114.418 13.3261L114.997 12.6549C115.528 12.0557 115.576 11.7681 115.576 9.73085C115.576 7.23817 115.335 6.44722 114.442 6.03977C114.08 5.87199 111.812 5.77612 108.096 5.77612H102.306V17.9998ZM112.633 9.10768C112.681 9.39529 112.657 9.92259 112.584 10.2342C112.44 10.8094 112.415 10.8094 108.941 10.8094H105.442V8.38863L109.013 8.46054C112.536 8.53244 112.56 8.53244 112.633 9.10768Z" fill="#3F3F3F"/>
<path d="M125.155 6.30342C124.962 6.615 123.539 9.10768 121.97 11.888C120.402 14.6683 118.978 17.1609 118.81 17.4486L118.472 17.9998H121.85L123.153 15.3633H130.44L131.139 16.6816L131.863 17.9998H133.625C134.662 17.9998 135.362 17.9039 135.314 17.7601C135.289 17.6403 133.721 14.884 131.863 11.6723L128.485 5.80009L126.989 5.77612C125.686 5.77612 125.445 5.84802 125.155 6.30342ZM127.954 10.6896C128.437 11.6962 128.847 12.5591 128.847 12.607C128.847 12.6789 127.93 12.7269 126.796 12.7269C125.662 12.7269 124.745 12.6789 124.745 12.607C124.745 12.3194 126.724 8.89196 126.893 8.89196C126.989 8.89196 127.448 9.70688 127.954 10.6896Z" fill="#3F3F3F"/>
<path d="M137.533 17.9998H139.946V14.2848C139.946 12.2475 140.019 10.5697 140.139 10.5697C140.236 10.5937 141.322 11.9359 142.552 13.5657C144.048 15.579 144.941 16.5617 145.23 16.5617C145.544 16.5617 146.461 15.5551 148.005 13.5418L150.322 10.4978V17.9998H153.458V5.77612H150.828L148.126 9.27545L145.424 12.7988L144.989 12.2235C144.772 11.9119 143.566 10.354 142.311 8.77212L140.043 5.89596L137.533 5.75215V17.9998Z" fill="#3F3F3F"/>
<path d="M156.354 17.9998H157.536C158.719 17.9998 158.743 17.9759 163.279 14.1889L167.815 10.378L167.887 14.1889L167.936 17.9998H170.831V5.77612H169.721C168.66 5.77612 168.491 5.89596 164.365 9.32339C162.024 11.2648 159.925 12.9905 159.732 13.1343C159.418 13.374 159.37 12.9426 159.467 9.58704L159.539 5.77612H156.354V17.9998Z" fill="#3F3F3F"/>
<path d="M173.968 17.9998H177.104V15.603C177.104 14.2848 177.177 13.2062 177.297 13.2062C177.394 13.2302 178.938 14.3087 180.724 15.603L183.981 17.9998H189.265L187.6 16.8014C186.683 16.1543 184.657 14.7162 183.112 13.6376C181.544 12.5591 180.313 11.6004 180.386 11.5045C180.434 11.4086 182.22 10.1143 184.367 8.62832L188.252 5.89596L183.595 5.75215L180.482 8.05308C178.769 9.29942 177.322 10.33 177.249 10.33C177.177 10.33 177.104 9.29942 177.104 8.05308V5.77612H173.968V17.9998Z" fill="#3F3F3F"/>
<path d="M196.818 5.94389C195.684 7.86134 190.134 17.7841 190.134 17.88C190.134 17.9519 190.834 17.9998 191.703 17.9998H193.271L194.574 15.3633H201.957L203.26 17.9998H207L199.906 5.77612H198.41C197.59 5.77612 196.866 5.84802 196.818 5.94389ZM199.496 10.8094L200.534 12.7269H196.142L197.156 10.8094C197.735 9.75481 198.241 8.89196 198.314 8.89196C198.386 8.89196 198.917 9.75481 199.496 10.8094Z" fill="#3F3F3F"/>
</svg>
