<svg width="250" height="250" viewBox="0 0 250 250" fill="none" xmlns="http://www.w3.org/2000/svg">
<g opacity="0.25">
<path d="M33.9033 201.236C32.2465 199.56 31.4324 197.783 31.4607 195.905C31.4739 194.012 32.3513 192.208 34.0928 190.495L41.0051 183.694L44.4021 187.13L38.3684 193.066C37.2895 194.128 36.7002 195.239 36.6002 196.398C36.5003 197.558 36.9671 198.661 38.0007 199.706C39.2014 200.921 40.5521 201.487 42.0527 201.406C43.5379 201.34 44.9971 200.602 46.4304 199.192L51.447 194.256L54.844 197.692L48.8103 203.628C47.7314 204.69 47.1421 205.801 47.0421 206.96C46.9422 208.12 47.4166 209.231 48.4654 210.291C49.6509 211.491 50.994 212.049 52.4946 211.968C53.9798 211.902 55.439 211.164 56.8723 209.754L61.8889 204.818L65.2859 208.254L53.1722 220.173L50.0487 217.013L52.8922 214.216C49.7325 215.171 46.891 214.373 44.368 211.821C43.1064 210.545 42.3352 209.196 42.0543 207.774C41.7427 206.351 41.9362 204.948 42.6346 203.563C41.0696 204.102 39.5385 204.168 38.0413 203.761C36.5442 203.353 35.1648 202.512 33.9033 201.236Z" fill="#3F3F3F"/>
<path d="M20.839 185.339L16.9986 187.447L14.5255 182.963L18.3658 180.855L20.839 185.339ZM37.6581 175.92L22.752 184.104L20.4197 179.875L35.3259 171.692L37.6581 175.92Z" fill="#3F3F3F"/>
<path d="M28.7019 162.673C27.791 165.132 25.9982 166.761 23.3234 167.561C20.6486 168.361 18.2634 167.981 16.1677 166.421C14.0513 164.867 12.4836 162.394 11.4645 159.002C10.4517 155.63 10.4007 152.715 11.3116 150.256C12.2018 147.803 13.9843 146.176 16.659 145.377C19.3338 144.577 21.7294 144.954 23.8458 146.508C25.9415 148.068 27.4957 150.533 28.5086 153.905C29.5276 157.297 29.5921 160.22 28.7019 162.673ZM17.8141 162.31C19.0951 163.19 20.4717 163.409 21.9439 162.969C23.4161 162.529 24.4447 161.59 25.0298 160.153C25.6087 158.695 25.5968 156.962 24.994 154.956C24.3913 152.95 23.4494 151.507 22.1683 150.627C20.8811 149.727 19.5014 149.497 18.0292 149.938C16.557 150.378 15.5315 151.327 14.9526 152.785C14.3675 154.222 14.3764 155.944 14.9791 157.951C15.5818 159.957 16.5268 161.41 17.8141 162.31Z" fill="#3F3F3F"/>
<path d="M23.7728 114.207L23.8193 120.588L17.1849 128.054L17.208 131.228L23.8965 131.179L23.9316 136.006L0.0351537 136.18L0 131.354L13.4417 131.256L13.4179 127.984L6.80749 120.906L6.76408 114.947L14.8857 124.443L23.7728 114.207Z" fill="#3F3F3F"/>
<path d="M23.3883 84.8195L23.888 84.961L19.0284 102.037C21.8593 102.21 23.8305 100.344 24.9419 96.4384C25.6927 93.8002 25.5987 91.7981 24.6598 90.4324L26.133 85.9671C27.5025 87.0059 28.3717 88.4979 28.7407 90.4431C29.0888 92.3824 28.8845 94.6815 28.1278 97.3406C27.1228 100.872 25.6196 103.466 23.6184 105.121C21.6231 106.756 19.1887 107.167 16.3151 106.353C13.4832 105.551 11.6355 103.939 10.7722 101.517C9.91479 99.0747 9.9679 96.1603 10.9315 92.7742C12.9475 85.6904 17.0997 83.0388 23.3883 84.8195ZM14.1174 93.6763C13.0651 97.3741 13.7576 99.8823 16.195 101.201L19.7421 88.7368C18.5048 88.4986 17.3918 88.812 16.4032 89.6769C15.3996 90.5151 14.6377 91.8483 14.1174 93.6763Z" fill="#3F3F3F"/>
<path d="M24.9106 61.4306C25.4002 60.5905 25.9304 59.8739 26.5014 59.2808L30.1504 61.397C29.2827 62.5424 28.6584 63.4417 28.2776 64.0952C27.2331 65.8874 26.9527 67.4857 27.4361 68.8902C27.9196 70.2946 29.228 71.6154 31.3613 72.8526L36.6103 75.8968L34.1786 80.0693L19.4703 71.5392L21.7224 67.6747L25.4837 69.8561C24.4814 68.5255 23.9333 67.146 23.8393 65.7176C23.7375 64.2598 24.0946 62.8307 24.9106 61.4306Z" fill="#3F3F3F"/>
<path d="M40.0355 42.5151C44.719 37.7812 48.8902 37.1923 52.5491 40.7485L59.4792 47.4841L56.3524 50.686L53.771 48.177C54.4393 51.2988 53.3233 54.3446 50.423 57.3144C48.6405 59.1396 46.9553 60.2 45.3672 60.4956C43.7787 60.7606 42.4418 60.3658 41.3565 59.311C40.1472 58.1356 39.8071 56.7046 40.3362 55.0179C40.8649 53.3007 42.1773 51.2297 44.2734 48.8048L48.6613 43.7083L48.452 43.5048C47.7079 42.7815 46.8166 42.5183 45.7783 42.7151C44.7396 42.8813 43.616 43.5832 42.4075 44.8206C40.3229 46.9551 39.6424 48.766 40.3659 50.2531L37.1937 53.5013C36.3379 52.4282 35.9397 51.2423 35.9993 49.9435C36.0589 48.6447 36.4405 47.3875 37.1441 46.172C37.8477 44.9564 38.8115 43.7374 40.0355 42.5151ZM48.9573 54.0809C50.483 52.5186 51.4197 50.987 51.7675 49.4859C52.0998 47.9698 51.8551 46.8124 51.0334 46.0137L50.6148 45.6069L46.6573 50.2626C45.466 51.6373 44.6924 52.7698 44.3367 53.6601C43.9654 54.5354 44.0278 55.2141 44.5239 55.6963C44.9735 56.1333 45.5794 56.2247 46.3414 55.9704C47.1035 55.7161 47.9754 55.0863 48.9573 54.0809Z" fill="#3F3F3F"/>
<path d="M81.87 14.4307C83.9935 13.4048 85.9419 13.2072 87.7152 13.838C89.508 14.4594 90.9374 15.8682 92.0034 18.0643L96.2344 26.7809L91.8801 28.8846L88.1869 21.2758C87.5265 19.9154 86.662 19.0014 85.5934 18.534C84.5247 18.0666 83.328 18.153 82.0032 18.793C80.4641 19.5366 79.4918 20.6302 79.0861 22.0738C78.6711 23.4979 78.9022 25.1137 79.7795 26.9212L82.8502 33.2473L78.4959 35.351L74.8027 27.7422C74.1423 26.3817 73.2778 25.4678 72.2092 25.0004C71.1405 24.533 69.934 24.624 68.5898 25.2735C67.0702 26.0076 66.1076 27.0965 65.7019 28.5401C65.2869 29.9643 65.518 31.5801 66.3953 33.3875L69.466 39.7136L65.1117 41.8173L57.6969 26.5414L61.7005 24.6071L63.441 28.1929C63.5507 24.9009 65.2225 22.4736 68.4566 20.9112C70.0736 20.1299 71.6021 19.8353 73.0421 20.0273C74.4922 20.1905 75.7621 20.8246 76.8516 21.9297C76.8436 20.2781 77.2738 18.8106 78.142 17.5274C79.0103 16.2442 80.253 15.212 81.87 14.4307Z" fill="#3F3F3F"/>
<path d="M101.161 7.20321L100.396 2.8976L105.447 2.00359L106.213 6.30919L101.161 7.20321ZM104.689 26.1196L101.718 9.40745L106.482 8.56436L109.453 25.2765L104.689 26.1196Z" fill="#3F3F3F"/>
<path d="M139.728 24.5262L133.335 24.3218L126.118 17.4149L122.938 17.3133L122.723 23.9825L117.888 23.8279L118.655 0L123.49 0.154608L123.059 13.5578L126.336 13.6626L133.686 7.35115L139.658 7.54207L129.826 15.2649L139.728 24.5262Z" fill="#3F3F3F"/>
<path d="M161.251 12.4223C167.584 14.5031 169.966 17.9689 168.399 22.8196L165.431 32.0071L161.167 30.6362L162.272 27.2141C159.766 29.1991 156.535 29.5559 152.579 28.2844C150.148 27.5029 148.447 26.4683 147.476 25.1805C146.532 23.8788 146.292 22.5086 146.757 21.0698C147.275 19.4666 148.409 18.5265 150.158 18.2494C151.935 17.9585 154.378 18.2106 157.487 19.0057L164.014 20.6612L164.103 20.3837C164.422 19.3971 164.262 18.4836 163.624 17.6432C163.013 16.7889 161.884 16.0968 160.235 15.567C157.392 14.6531 155.464 14.85 154.45 16.1577L150.124 14.767C150.707 13.5251 151.595 12.6421 152.787 12.1179C153.98 11.5938 155.278 11.3759 156.683 11.4642C158.087 11.5526 159.61 11.872 161.251 12.4223ZM154.831 25.537C156.912 26.2059 158.704 26.362 160.206 26.0055C161.715 25.6285 162.646 24.8953 162.998 23.8059L163.177 23.251L157.238 21.7842C155.474 21.3307 154.113 21.1429 153.156 21.2208C152.205 21.2781 151.623 21.6356 151.411 22.2934C151.218 22.8894 151.405 23.4714 151.972 24.0394C152.539 24.6073 153.492 25.1065 154.831 25.537Z" fill="#3F3F3F"/>
<path d="M216.845 49.702C218.483 51.3958 219.278 53.1815 219.229 55.059C219.195 56.9522 218.298 58.7459 216.538 60.4403L209.551 67.1655L206.192 63.6925L212.291 57.822C213.381 56.7724 213.982 55.6682 214.095 54.5096C214.208 53.3509 213.753 52.2433 212.731 51.1866C211.544 49.959 210.199 49.3776 208.698 49.4426C207.212 49.4925 205.745 50.2147 204.296 51.6092L199.226 56.4901L195.867 53.017L201.965 47.1466C203.056 46.0969 203.657 44.9928 203.77 43.8341C203.882 42.6754 203.42 41.56 202.383 40.4878C201.211 39.2757 199.874 38.7022 198.373 38.7671C196.887 38.817 195.42 39.5393 193.971 40.9338L188.9 45.8146L185.541 42.3416L197.785 30.5556L200.874 33.749L198 36.5155C201.17 35.5945 204.002 36.4237 206.497 39.0033C207.745 40.293 208.501 41.6504 208.766 43.0754C209.062 44.5009 208.853 45.9022 208.14 47.2793C209.711 46.7574 211.242 46.7083 212.735 47.132C214.228 47.5556 215.598 48.4123 216.845 49.702Z" fill="#3F3F3F"/>
<path d="M229.734 65.7407L233.597 63.6745L236.021 68.1849L232.158 70.2512L229.734 65.7407ZM212.812 74.975L227.807 66.9548L230.093 71.2084L215.098 79.2285L212.812 74.975Z" fill="#3F3F3F"/>
<path d="M221.623 88.3195C222.561 85.8705 224.371 84.2607 227.055 83.4901C229.738 82.7195 232.119 83.1256 234.197 84.7085C236.297 86.2853 237.837 88.7753 238.819 92.1786C239.795 95.5611 239.814 98.4769 238.876 100.926C237.959 103.369 236.158 104.976 233.475 105.746C230.792 106.517 228.4 106.114 226.301 104.537C224.223 102.954 222.696 100.471 221.72 97.0889C220.738 93.6856 220.706 90.7625 221.623 88.3195ZM232.506 88.8007C231.235 87.9074 229.86 87.6729 228.384 88.097C226.907 88.5211 225.868 89.4486 225.267 90.8795C224.672 92.3312 224.665 94.0634 225.246 96.0763C225.826 98.0893 226.752 99.5424 228.024 100.436C229.301 101.35 230.678 101.595 232.155 101.171C233.632 100.746 234.668 99.8085 235.263 98.3568C235.863 96.9259 235.874 95.204 235.293 93.1911C234.712 91.1782 233.783 89.7147 232.506 88.8007Z" fill="#3F3F3F"/>
<path d="M226.02 136.837L226.043 130.455L232.759 123.062L232.771 119.888L226.082 119.864L226.1 115.037L249.997 115.123L249.979 119.95L236.537 119.901L236.525 123.173L243.057 130.323L243.035 136.282L235.019 126.698L226.02 136.837Z" fill="#3F3F3F"/>
<path d="M226.082 166.226L225.583 166.079L230.63 149.057C227.801 148.853 225.81 150.698 224.656 154.591C223.876 157.221 223.948 159.224 224.872 160.6L223.35 165.049C221.992 163.995 221.139 162.494 220.791 160.544C220.464 158.602 220.694 156.305 221.48 153.654C222.523 150.134 224.055 147.557 226.074 145.923C228.087 144.31 230.526 143.926 233.391 144.771C236.214 145.604 238.043 147.236 238.88 149.667C239.711 152.119 239.626 155.033 238.625 158.408C236.531 165.469 232.35 168.075 226.082 166.226ZM235.449 157.471C236.542 153.785 235.877 151.27 233.454 149.924L229.77 162.349C231.005 162.601 232.121 162.299 233.12 161.445C234.132 160.618 234.909 159.293 235.449 157.471Z" fill="#3F3F3F"/>
<path d="M224.303 189.597C223.804 190.432 223.266 191.143 222.688 191.729L219.063 189.573C219.943 188.438 220.577 187.545 220.965 186.896C222.029 185.115 222.327 183.52 221.859 182.11C221.391 180.701 220.097 179.366 217.978 178.105L212.763 175.004L215.24 170.858L229.854 179.548L227.559 183.388L223.822 181.166C224.81 182.507 225.343 183.893 225.421 185.322C225.507 186.781 225.134 188.206 224.303 189.597Z" fill="#3F3F3F"/>
<path d="M208.971 208.346C204.236 213.029 200.058 213.572 196.439 209.976L189.583 203.165L192.745 199.998L195.299 202.535C194.665 199.406 195.814 196.372 198.747 193.434C200.549 191.629 202.246 190.587 203.837 190.309C205.428 190.061 206.761 190.47 207.834 191.537C209.031 192.725 209.355 194.16 208.808 195.841C208.26 197.552 206.925 199.609 204.802 202.011L200.359 207.059L200.566 207.265C201.302 207.996 202.19 208.269 203.231 208.084C204.271 207.929 205.402 207.239 206.624 206.015C208.732 203.903 209.433 202.1 208.726 200.605L211.933 197.392C212.777 198.474 213.162 199.664 213.088 200.962C213.015 202.26 212.619 203.513 211.902 204.721C211.185 205.929 210.208 207.137 208.971 208.346ZM200.177 196.684C198.634 198.229 197.681 199.75 197.316 201.248C196.967 202.76 197.199 203.92 198.012 204.728L198.426 205.139L202.435 200.527C203.641 199.165 204.427 198.041 204.792 197.155C205.173 196.284 205.118 195.604 204.628 195.117C204.183 194.675 203.578 194.577 202.813 194.823C202.048 195.069 201.17 195.689 200.177 196.684Z" fill="#3F3F3F"/>
<path d="M166.831 235.972C164.696 236.975 162.746 237.151 160.979 236.501C159.194 235.86 157.78 234.436 156.738 232.228L152.603 223.466L156.98 221.41L160.589 229.058C161.235 230.426 162.089 231.349 163.153 231.828C164.216 232.307 165.414 232.234 166.745 231.609C168.293 230.882 169.277 229.799 169.698 228.36C170.129 226.94 169.916 225.322 169.058 223.505L166.057 217.146L170.434 215.09L174.044 222.739C174.689 224.106 175.544 225.029 176.607 225.509C177.671 225.988 178.878 225.91 180.229 225.275C181.757 224.557 182.731 223.479 183.153 222.04C183.583 220.621 183.37 219.002 182.513 217.185L179.512 210.826L183.889 208.77L191.135 224.126L187.111 226.017L185.41 222.412C185.264 225.703 183.566 228.111 180.315 229.638C178.689 230.402 177.157 230.68 175.72 230.472C174.271 230.293 173.009 229.645 171.931 228.528C171.921 230.18 171.475 231.643 170.592 232.916C169.71 234.19 168.456 235.209 166.831 235.972Z" fill="#3F3F3F"/>
<path d="M147.461 242.988L148.179 247.302L143.119 248.141L142.401 243.827L147.461 242.988ZM144.141 224.035L146.929 240.778L142.156 241.569L139.369 224.826L144.141 224.035Z" fill="#3F3F3F"/>
<path d="M109.087 225.245L115.477 225.519L122.618 232.505L125.797 232.641L126.085 225.975L130.918 226.182L129.89 250L125.056 249.793L125.635 236.395L122.359 236.254L114.94 242.485L108.971 242.229L118.887 234.614L109.087 225.245Z" fill="#3F3F3F"/>
<path d="M87.4323 237.113C81.1233 234.963 78.7788 231.472 80.3989 226.638L83.4675 217.484L87.7169 218.901L86.5739 222.311C89.1016 220.354 92.3362 220.032 96.2777 221.347C98.7001 222.155 100.39 223.208 101.347 224.506C102.276 225.818 102.501 227.191 102.02 228.625C101.485 230.222 100.341 231.15 98.5884 231.408C96.8084 231.679 94.3685 231.4 91.2685 230.571L84.7605 228.845L84.6678 229.121C84.3383 230.104 84.488 231.019 85.1169 231.867C85.7185 232.728 86.8404 233.432 88.4826 233.98C91.3156 234.925 93.2461 234.749 94.2741 233.452L98.585 234.89C97.9883 236.126 97.0908 236.999 95.8924 237.51C94.694 238.021 93.3933 238.225 91.9901 238.121C90.587 238.017 89.0677 237.681 87.4323 237.113ZM93.9957 224.069C91.9223 223.378 90.1325 223.202 88.6262 223.542C87.1131 223.903 86.1747 224.626 85.8108 225.711L85.6255 226.264L91.5484 227.796C93.3071 228.268 94.6656 228.471 95.624 228.404C96.5755 228.357 97.1611 228.006 97.3808 227.35C97.5798 226.756 97.399 226.172 96.8383 225.598C96.2776 225.024 95.33 224.515 93.9957 224.069Z" fill="#3F3F3F"/>
</g>
</svg>
