<svg xmlns="http://www.w3.org/2000/svg">
<symbol id="icon-vk" viewBox="0 0 28 22">
<path d="M.07 4c0-.63.42-.96 1.27-1.01L4.6 3c.22 0 .37.09.44.27.33.91.7 1.7 1.13 2.37.41.66.95 1.43 1.63 2.3a.3.3 0 00.28.16c.1 0 .18-.04.24-.13l.07-.2.02-3.17c0-.21-.06-.36-.19-.43A1.9 1.9 0 007.53 4c-.26-.04-.4-.17-.4-.4 0-.05.02-.09.03-.11.3-.8 1.18-1.19 2.63-1.19L11 2.29c.56 0 1.02.12 1.38.35.37.23.55.6.55 1.1v4.15c.1.06.2.09.28.09.22 0 .41-.11.57-.33 1.6-1.88 2.48-3.13 2.6-3.77a1.29 1.29 0 01.55-.57c.24-.13.44-.22.62-.27a.5.5 0 01.2-.03h3.39l.21.01c.3 0 .52.12.68.35.06.07.1.15.12.24a1.57 1.57 0 01.06.4v.13c-.1.5-.36 1.03-.78 1.6-.41.57-.94 1.18-1.59 1.84-.64.66-1.04 1.09-1.2 1.3-.13.14-.2.28-.2.4 0 .1.06.2.18.33l3.2 3.36c.17.2.26.41.26.64 0 .28-.13.52-.4.7-.26.18-.57.28-.94.3l-.37.03h-3.33a.8.8 0 00-.08 0 .8.8 0 01-.1.02c-.31 0-.61-.12-.89-.35a182 182 0 01-2.06-2.16 1.1 1.1 0 00-.3-.24 25.63 25.63 0 00-.44 1.63l-.07.31c-.14.43-.45.68-.92.77l-.3.02H9.74a5.92 5.92 0 01-3.62-1.4 14.5 14.5 0 01-3.25-3.59A32.9 32.9 0 01.18 4.52C.11 4.36.07 4.2.07 4zm13.15 4.73c-.3 0-.58-.07-.83-.21-.25-.14-.37-.33-.37-.58v-4.2c0-.25-.07-.42-.22-.52-.15-.1-.4-.16-.77-.16L9.8 3.1c-.63 0-1.1.09-1.43.27.65.26.97.67.97 1.24v3.22c-.03.3-.18.56-.44.76-.26.2-.55.3-.88.3-.43 0-.77-.17-1-.53a18.47 18.47 0 01-2.54-4.1l-.2-.47-2.9-.02c-.2 0-.3.01-.33.03-.02.02-.03.07-.03.16 0 .1.02.22.04.34l.46 1.03a23.46 23.46 0 004 6.25c1.44 1.53 2.85 2.29 4.23 2.29h2.2c.08 0 .15-.02.19-.07a.52.52 0 00.1-.24l.05-.18.42-1.61c.11-.22.22-.37.3-.44.16-.14.35-.2.57-.2.35 0 .71.17 1.08.53l1.86 1.97c.11.16.24.24.37.24h3.6c.45 0 .67-.1.67-.28a.31.31 0 00-.07-.18l-3.17-3.3a1.17 1.17 0 01-.38-.83c0-.3.12-.57.35-.84.2-.25.56-.65 1.11-1.22a28.2 28.2 0 001.43-1.59c.41-.5.68-.94.81-1.34l.07-.24a.24.24 0 01-.02-.12l-.02-.14h-3.44c-.22.07-.4.18-.53.33l-.13.35c-.36.84-1.32 2.14-2.86 3.9-.31.24-.67.36-1.08.36z"/>
</symbol>

<symbol viewBox="0 0 50 53" id="icon-cat-black">
<circle cx="25" cy="28" r="25" fill="#68B738"/>
      <g clip-path="url(#clip0)">
      <path d="M35.2034 0H35.008C34.6778 0.187081 34.415 0.473924 34.2571 0.819588C33.968 1.37738 33.7453 1.96735 33.5937 2.57732C33.5612 2.76073 33.4688 2.92811 33.331 3.05315C33.1932 3.17818 33.0179 3.25377 32.8326 3.26804C32.2658 3.36597 31.7288 3.59243 31.2626 3.93012C30.7965 4.26781 30.4135 4.7078 30.1429 5.21649C29.7708 5.87697 29.4526 6.5665 29.1914 7.27835C28.4611 9.17526 27.9006 11.134 27.2114 13.0464C26.8874 13.9175 26.872 13.9175 25.8949 13.9175C24.7274 13.9175 24.8097 13.7371 24.7943 15.0258C24.7943 15.433 24.9177 15.6392 25.3497 15.6186C25.4834 15.6186 25.684 15.5515 25.7354 15.7268C25.7869 15.9021 25.612 15.9794 25.5091 16.0825C24.8994 16.7029 24.1276 17.1388 23.2823 17.3402C22.3051 17.6031 21.3074 17.8093 20.356 18.1289C17.9131 18.9485 15.6554 20.0928 13.8966 22.0309C12.8681 23.2347 12.0445 24.6001 11.4589 26.0722C9.57143 30.5258 8.656 35.2165 7.94629 39.9536C7.612 42.1753 7.37543 44.4072 7.19543 46.6546C7.10286 47.7577 7 48.8763 7 50H24.1411C24.1696 49.7731 24.1283 49.5429 24.0229 49.3402C23.858 48.9289 23.5901 48.5672 23.2451 48.29C22.9 48.0128 22.4895 47.8295 22.0531 47.7577C21.6931 47.6753 21.652 47.567 21.8731 47.2835C22.2338 46.801 22.5103 46.2607 22.6909 45.6856C23.5291 43.2062 23.8531 40.6186 24.2594 38.0567C24.4889 36.0999 25.0894 34.2051 26.0286 32.4742C26.7611 31.2002 27.7382 30.0842 28.9034 29.1907C29.3303 28.866 29.3457 28.866 29.4177 29.4175C29.4691 29.7835 29.4794 30.1598 29.5051 30.5309C29.6595 32.9662 29.6285 35.4097 29.4126 37.8402C29.2184 39.7242 29.1926 41.6217 29.3354 43.5103C29.5399 45.7029 29.9304 47.8739 30.5029 50H37.3429C37.2536 49.442 36.9973 48.9243 36.6078 48.5156C36.2184 48.1069 35.7143 47.8264 35.1623 47.7113C34.5177 47.6087 33.8587 47.6438 33.2286 47.8144C32.92 47.8866 32.7914 47.8144 32.7657 47.4794C32.5529 44.7505 32.7261 42.0051 33.28 39.3247C33.966 36.2304 34.4912 33.1025 34.8537 29.9536C34.9887 28.6819 35.3881 27.4528 36.0263 26.3454C36.6383 25.2526 37.1731 24.1186 37.7749 23.0206C38.0138 22.6214 38.1575 22.1723 38.195 21.7083C38.2325 21.2443 38.1626 20.7779 37.9909 20.3454C37.852 19.9794 37.7183 19.6082 37.5486 19.2577C37.0343 18.2526 36.52 17.2577 36.0469 16.2423C35.7949 15.7268 35.8514 15.6649 36.412 15.6495C37.2503 15.6495 37.2503 15.6495 37.2657 14.8041C37.2657 14.6907 37.2657 14.5773 37.2657 14.4639C37.2657 14.1082 37.132 13.9124 36.7514 13.9485C36.4943 13.9485 36.2371 13.9485 35.9697 13.9485C35.6149 13.9485 35.512 13.799 35.5994 13.433C35.7729 12.838 36.1142 12.306 36.5823 11.9009C37.0503 11.4958 37.6252 11.2349 38.2377 11.1495C39.3772 11.0505 40.5251 11.1252 41.6423 11.3711C41.7712 11.4118 41.9109 11.4001 42.0312 11.3383C42.1515 11.2766 42.2427 11.1699 42.2851 11.0412C42.4909 10.5258 42.7171 10.0103 42.9486 9.49484C43.001 9.40339 43.0242 9.29801 43.015 9.19293C43.0058 9.08785 42.9647 8.98812 42.8971 8.90722C41.2514 6.81443 39.4669 4.86082 37.0343 3.60825C36.9168 3.55754 36.8138 3.47814 36.7347 3.3773C36.6557 3.27646 36.6031 3.15738 36.5817 3.03093C36.444 2.29408 36.225 1.57487 35.9286 0.886598C35.7895 0.519904 35.5349 0.20865 35.2034 0V0Z" fill="black"/>
      </g>
      <defs>
      <clipPath id="clip0">
      <rect width="36" height="50" fill="white" transform="translate(7)"/>
      </clipPath>
      </defs>
</symbol>

<symbol viewBox="0 0 32 12" id="icon-arrow">
<g clip-path="url(#clip0)">
<line y1="6" x2="18" y2="6" stroke="black" stroke-width="2"/>
 <path d="M24 6L17.25 11.1962L17.25 0.803848L24 6Z" fill="black"/>
 </g>
</symbol>

<symbol iewBox="0 0 30 30" id="plus">
<line x1="31" x2="31" y2="60" stroke="#D3D3D3" stroke-width="2"/>
<line x1="30" y1="31" y2="31" stroke="#D3D3D3" stroke-width="2"/>
</symbol>



<symbol id="phone" viewBox="0 0 20 21">
<g clip-path="url(#clip0)">
<path d="M17.9 9.75275H9.39999V10.9569H17.9L15.8 13.0641L16.7 13.9672L19.8 10.8565C19.8974 10.7263 19.95 10.5678 19.95 10.405C19.95 10.2421 19.8974 10.0837 19.8 9.95344L16.7 6.84277L15.8 7.74587L17.9 9.75275Z" fill="black"/>
<path d="M8.10001 19.7872V13.5659C8.08846 13.41 8.02154 13.2635 7.91142 13.153C7.80131 13.0425 7.65531 12.9754 7.50001 12.9638H3.10001C3.10516 13.2815 3.23325 13.5848 3.45718 13.8095C3.68112 14.0342 3.98336 14.1627 4.30001 14.1679H6.80001V19.1851H3.10001C2.86326 19.2 2.62591 19.1676 2.40176 19.0896C2.17762 19.0117 1.97115 18.8898 1.79436 18.7311C1.61757 18.5723 1.47399 18.3799 1.37196 18.165C1.26992 17.9501 1.21148 17.717 1.20001 17.4793V3.43111C1.19181 2.96681 1.36516 2.51774 1.68292 2.18013C2.00069 1.84252 2.43758 1.64322 2.90001 1.62492H6.80001V6.64212H4.40001C4.08336 6.64729 3.78112 6.77581 3.55718 7.00052C3.33325 7.22523 3.20516 7.52851 3.20001 7.84625H7.60001C7.75531 7.83466 7.90131 7.76751 8.01142 7.65701C8.12154 7.54651 8.18846 7.40002 8.20001 7.24418V0.922517C8.15232 0.76584 8.06117 0.626022 7.93721 0.519407C7.81325 0.412792 7.66161 0.343785 7.50001 0.320453H3.10001C2.70599 0.307054 2.31321 0.371716 1.94411 0.510744C1.57501 0.649771 1.23684 0.860436 0.948933 1.13069C0.661026 1.40095 0.42903 1.7255 0.266207 2.08579C0.103385 2.44608 0.01293 2.83504 1.46306e-05 3.23043V17.1782C-0.0289644 17.5773 0.0246504 17.978 0.157487 18.3552C0.290324 18.7324 0.499509 19.078 0.771886 19.3701C1.04426 19.6623 1.37394 19.8947 1.74019 20.0529C2.10643 20.211 2.50132 20.2913 2.90001 20.2889H7.50001C7.5735 20.304 7.64943 20.3022 7.72216 20.2839C7.7949 20.2655 7.86259 20.2309 7.92021 20.1828C7.97783 20.1346 8.02391 20.074 8.05504 20.0055C8.08616 19.9371 8.10153 19.8624 8.10001 19.7872Z" fill="black"/>
</g>
<defs>
<clipPath id="clip0">
<rect width="20" height="20.0688" fill="white" transform="translate(0 0.320435)"/>
</clipPath>
</defs>
</symbol>

<symbol id="mail" viewBox="0 0 19 14">
<line x1="0.65" y1="5.84766" x2="0.65" y2="13.8477" stroke="#222222" stroke-width="1.3"/>
<line x1="17.65" y1="5.84766" x2="17.65" y2="13.8477" stroke="#222222" stroke-width="1.3"/>
<line y1="13.1977" x2="18" y2="13.1977" stroke="#222222" stroke-width="1.3"/>
<line y1="1.19766" x2="18" y2="1.19766" stroke="#222222" stroke-width="1.3"/>
<path d="M17.35 3.02975L9.00002 9.5242L0.65 3.02975V1.49766H3.5L9.00002 1.49766H14H17.35V3.02975Z" stroke="#222222" stroke-width="1.3"/>

</symbol>

<symbol id="group-1" viewBox="0 0 60 60">
<rect width="60" height="60" fill="#68B738"/>
<g clip-path="url(#clip0)">
<path d="M42.8438 16.767C42.7434 16.317 42.3647 16 41.9325 16C41.9306 16 41.9288 16 41.9269 16C36.9891 16.033 24.9816 16.916 20.1337 24.38C17.6156 28.258 17.3991 33.293 19.4897 39.345C19.5056 39.392 19.5384 39.424 19.56 39.467C18.8128 41.44 18.5231 42.753 18.5156 42.79C18.4069 43.33 18.7303 43.862 19.2366 43.978C19.3022 43.993 19.3678 44 19.4334 44C19.8656 44 20.2547 43.679 20.3494 43.21C20.3691 43.108 22.7578 32.837 31.2028 26.832C31.6341 26.526 31.7503 25.905 31.4625 25.445C31.1747 24.985 30.5934 24.86 30.1622 25.168C25.3734 28.573 22.4241 33.176 20.6897 36.824C19.4484 32.246 19.7737 28.447 21.6759 25.519C25.4194 19.755 34.2984 18.365 39.6581 18.071C38.505 19.872 37.245 23.174 37.245 29C37.245 32.12 36.4153 34.522 34.7803 36.14C32.1591 38.731 27.9009 38.974 24.7866 38.724C24.2691 38.679 23.82 39.095 23.7806 39.646C23.7412 40.196 24.1284 40.676 24.6441 40.718C25.2675 40.769 25.9331 40.8 26.625 40.8C29.7956 40.8 33.4941 40.137 36.0544 37.606C38.0888 35.595 39.12 32.7 39.12 29.001C39.12 19.902 42.3356 17.905 42.3516 17.896C42.7416 17.687 42.9459 17.219 42.8438 16.767Z" fill="white"/>
</g>
<defs>
<clipPath id="clip0">
<rect width="30" height="32" fill="white" transform="translate(15 14)"/>
</clipPath>
</defs>
</symbol>


<symbol id="group-3" viewBox="0 0 60 60">
<path fill="#68B738" d="M0 0h60v60H0z"/><path fill-rule="evenodd" clip-rule="evenodd" d="M36.62 15.08a1 1 0 011.09.21c.9.91 2.1 2.88 3.06 5.92A42.6 42.6 0 0142.5 34a1 1 0 01-1 1H38v9a1 1 0 11-2 0V16a1 1 0 01.62-.92zM38 33h2.5a39.62 39.62 0 00-1.64-11.19 22.4 22.4 0 00-.86-2.3V33zM24 15a1 1 0 011 1v28a1 1 0 11-2 0V16a1 1 0 011-1z" fill="#fff"/><path fill-rule="evenodd" clip-rule="evenodd" d="M19.5 15a1 1 0 011 1v5.5c0 .56.2 1.32.7 1.92.48.56 1.31 1.08 2.8 1.08a1 1 0 110 2 5.41 5.41 0 01-4.33-1.8 5.07 5.07 0 01-1.17-3.2V16a1 1 0 011-1z" fill="#fff"/><path fill-rule="evenodd" clip-rule="evenodd" d="M28.5 15a1 1 0 00-1 1v5.5c0 .56-.2 1.32-.7 1.92-.48.56-1.31 1.08-2.8 1.08a1 1 0 000 2c2.01 0 3.43-.73 4.33-1.8a5.07 5.07 0 001.17-3.2V16a1 1 0 00-1-1z" fill="#fff"/>
</symbol>



<symbol id="icon-cat-pro" viewBox="0 0 67 50">
<circle cx="34.5" cy="25" r="25" fill="#68B738"/>
<g clip-path="url(#clip0)">
<path d="M61.55 13.9C62.1272 12.9815 62.8944 12.1973 63.8 11.6C64.3 11.25 64.6 11.25 64.9 11.9C65.3 12.85 65.65 13.85 65.35 14.9C65.2954 15.0781 65.2851 15.2668 65.3199 15.4497C65.3548 15.6327 65.4338 15.8044 65.55 15.95C65.85 16.35 66.1 16.75 66.35 17.1C66.6902 17.5319 66.9109 18.0456 66.9899 18.5897C67.0689 19.1339 67.0034 19.6892 66.8 20.2C66.6164 20.6959 66.5817 21.2346 66.7 21.75C66.7999 22.245 66.7999 22.755 66.7 23.25C66.6596 23.6207 66.5095 23.9709 66.2691 24.2559C66.0286 24.5409 65.7086 24.7478 65.35 24.85C64.7104 24.9717 64.1396 25.3284 63.75 25.85C63.7028 25.9268 63.6365 25.9901 63.5577 26.0339C63.4789 26.0777 63.3901 26.1005 63.3 26.1C62.7 26.2 61.2 24.85 61.2 24.25V23.95C61.25 22.15 61.15 22 59.5 21.25C59.1546 21.1282 58.8452 20.9219 58.6 20.65C58.3 20.25 57.9 20.3 57.45 20.45C57 20.6 56.75 20.9 56.8 21.4C56.9508 22.6104 57.0009 23.8313 56.95 25.05C56.9533 25.1891 56.9875 25.3257 57.05 25.45C58.6 27.7 59.2 30.35 59.95 32.9C60.55 34.85 61.65 35.9 63.65 36.05C63.97 36.0755 64.2876 36.1257 64.6 36.2C65.0109 36.266 65.3926 36.4538 65.6956 36.739C65.9987 37.0242 66.2092 37.3938 66.3 37.8C66.65 38.85 66.45 39.1 65.4 39.1H62.15C61.7292 39.1213 61.3167 38.9778 61 38.7C60.4939 38.2729 59.9191 37.9348 59.3 37.7C58.6155 37.4473 58.0231 36.9943 57.6 36.4C57.0143 35.5817 56.3439 34.8275 55.6 34.15C54.2 32.7 52.7 31.3 51.4 29.8C50.4103 28.7779 49.8395 27.4221 49.8 26C49.8 25.55 49.7 25.35 49.2 25.55C49.0503 25.645 48.8773 25.6969 48.7 25.7C47.3 25.7 46.6 26.55 46.1 27.8C45.65 28.85 45.05 29.85 44.5 30.9C44.1881 31.5572 44.0178 32.2727 44 33C44 34.2 44.3 34.6 45.4 35C46.1 35.25 46.75 35.5 47.1 36.2C47.5 37 47.4 37.2 46.55 37.25H43.15C42.954 37.2694 42.7568 37.2267 42.5864 37.1281C42.4159 37.0294 42.2807 36.8796 42.2 36.7L41.3 35.2C41.0347 34.8086 40.8648 34.3605 40.8041 33.8916C40.7433 33.4227 40.7932 32.9461 40.95 32.5C41.1664 31.6317 41.1835 30.7258 41 29.85C40.8739 29.24 40.8848 28.6097 41.0318 28.0045C41.1788 27.3993 41.4582 26.8342 41.85 26.35C42.15 26 42.15 25.85 41.65 25.75C39.6054 25.3157 37.6233 24.627 35.75 23.7C35.7367 23.7 35.724 23.6947 35.7146 23.6853C35.7052 23.676 35.7 23.6632 35.7 23.65C34.1 23.05 33.8 23.15 33.35 24.8C32.95 26.2 32.55 27.6 32.25 29.05C31.9 30.65 32.3 32.15 32.8 33.65C33 34.25 33.6 34.2 34.05 34.35C35.05 34.65 35.9 35.05 36.3 36.1C36.65 36.9 36.6 37 35.75 37C34.9 37 34.05 36.95 33.15 37C32.3905 37.0137 31.6493 36.7667 31.05 36.3C28.65 34.7 27.95 32.25 27.75 29.6C27.65 27.95 26.75 26.65 25.7 25.4C25.5 25.15 25.3 25.05 25 25.25C23.9267 25.8418 22.8062 26.3435 21.65 26.75C19.2371 27.602 17.1198 29.1292 15.55 31.15C14.9638 31.8875 14.5842 32.7675 14.45 33.7C14.3 34.6 14.55 35 15.45 35.25C16.35 35.5 16.8 36 16.9 36.95C16.95 37.35 16.8 37.55 16.4 37.55H12.35C12.2174 37.5406 12.0891 37.4993 11.9759 37.4297C11.8628 37.36 11.7681 37.2641 11.7 37.15C11.0719 36.3724 10.7358 35.3995 10.75 34.4C10.7237 32.6724 10.8745 30.9468 11.2 29.25C11.2667 28.7418 11.4564 28.2576 11.7527 27.8394C12.0489 27.4212 12.4427 27.0815 12.9 26.85C15.85 25.45 17.4 22.8 18.8 20.05C19.1 19.5 18.85 19.4 18.35 19.45C16.9506 19.6442 15.6248 20.1952 14.5 21.05C13.0271 22.1244 11.6396 23.3113 10.35 24.6C8.9748 25.9968 7.15133 26.8643 5.19998 27.05C1.54998 27.25 -0.150021 25.2 -2.12286e-05 21.9C0.03351 20.7748 0.457802 19.6964 1.19998 18.85C1.45799 18.5155 1.80985 18.2655 2.21061 18.1319C2.61138 17.9983 3.04287 17.9872 3.44998 18.1C4.19998 18.3 4.39998 18.7 4.09998 19.45C3.94998 19.75 3.74998 20 3.59998 20.3C3.38428 20.6065 3.21574 20.9435 3.09998 21.3C2.54998 22.8 3.29998 23.85 4.84998 24C6.49998 24.15 7.84998 23.45 9.09998 22.45C10.6059 21.2441 11.9503 19.8493 13.1 18.3C13.9596 17.1687 15.042 16.2256 16.2804 15.529C17.5188 14.8325 18.8868 14.3971 20.3 14.25C21.45 14.1 22.45 13.6 23.55 13.3C25.6072 12.6728 27.7495 12.3692 29.9 12.4C30.896 12.4415 31.8883 12.2533 32.8 11.85C35.25 10.85 37.8 10.85 40.35 11.35C42.35 11.75 44.35 12.25 46.3 12.75C47.4605 12.9662 48.6537 12.9321 49.8 12.65C51.9943 12.0937 54.2389 11.7587 56.5 11.65C57.9812 11.5779 59.4576 11.8697 60.8 12.5C61.8 12.95 61.8 12.95 61.55 13.9Z"/>
</g>
<defs>
<clipPath id="clip0">
<rect width="67" height="28" fill="white" transform="translate(0 11)"/>
</clipPath>
</defs>


</symbol>

<symbol viewBox="0 0 18 2" id="line">
<line y1="6" x2="18" y2="6"  stroke="black" stroke-width="2"/>
<path d="M24 6L17.25 11.1962L17.25 0.803848L24 6Z" fill="black"/>
</symbol>

<symbol id="icon-fb" viewBox="0 0 22 22">
<path d="M16.5 1.83325H13.75C12.5344 1.83325 11.3687 2.30674 10.5091 3.14957C9.64957 3.99239 9.16669 5.1355 9.16669 6.32743V9.02394H6.41669V12.6193H9.16669V19.81H12.8334V12.6193H15.5834L16.5 9.02394H12.8334V6.32743C12.8334 6.08905 12.9299 5.86042 13.1018 5.69186C13.2737 5.52329 13.5069 5.4286 13.75 5.4286H16.5V1.83325Z" stroke-linecap="round" stroke-linejoin="round"/>

</symbol>

<symbol id="icon-insta" viewBox="0 0 16 16">
<path d="M7.98438 0.0625C9.31771 0.0625 10.4062 0.078125 11.25 0.109375C11.9688 0.140625 12.6094 0.265625 13.1719 0.484375C13.7135 0.692708 14.1823 0.994792 14.5781 1.39062C14.974 1.78646 15.276 2.25521 15.4844 2.79687C15.7031 3.35937 15.8281 4 15.8594 4.71875C15.8906 5.5625 15.9062 6.65104 15.9062 7.98437C15.9062 9.31771 15.8906 10.4062 15.8594 11.25C15.8281 11.9687 15.7031 12.6094 15.4844 13.1719C15.276 13.7135 14.974 14.1823 14.5781 14.5781C14.1823 14.974 13.7135 15.276 13.1719 15.4844C12.6094 15.7031 11.9688 15.8281 11.25 15.8594C10.4062 15.8906 9.31771 15.9062 7.98438 15.9062C6.65104 15.9062 5.5625 15.8906 4.71875 15.8594C4 15.8281 3.35938 15.7031 2.79688 15.4844C2.25521 15.276 1.78646 14.974 1.39062 14.5781C0.994792 14.1823 0.692708 13.7135 0.484375 13.1719C0.265625 12.6094 0.140625 11.9687 0.109375 11.25C0.078125 10.4062 0.0625 9.31771 0.0625 7.98437C0.0625 6.65104 0.078125 5.5625 0.109375 4.71875C0.140625 4 0.265625 3.35937 0.484375 2.79687C0.692708 2.25521 0.994792 1.78646 1.39062 1.39062C1.78646 0.994792 2.25521 0.692708 2.79688 0.484375C3.35938 0.265625 4 0.140625 4.71875 0.109375C5.5625 0.078125 6.65104 0.0625 7.98438 0.0625ZM7.98438 1.09375C6.59896 1.09375 5.46875 1.10937 4.59375 1.14062C4.03125 1.16146 3.51042 1.26042 3.03125 1.4375C2.28125 1.75 1.75 2.28125 1.4375 3.03125C1.26042 3.51042 1.16146 4.03125 1.14062 4.59375C1.10938 5.46875 1.09375 6.59896 1.09375 7.98437C1.09375 9.36979 1.10938 10.5 1.14062 11.375C1.16146 11.9375 1.26042 12.4583 1.4375 12.9375C1.75 13.6875 2.28125 14.2187 3.03125 14.5312C3.51042 14.7083 4.03125 14.8073 4.59375 14.8281C5.46875 14.8594 6.59896 14.875 7.98438 14.875C9.36979 14.875 10.5 14.8594 11.375 14.8281C11.9375 14.8073 12.4583 14.7083 12.9375 14.5312C13.6875 14.2187 14.2188 13.6875 14.5312 12.9375C14.7083 12.4583 14.8073 11.9375 14.8281 11.375C14.8594 10.5 14.875 9.36979 14.875 7.98437C14.875 6.59896 14.8594 5.46875 14.8281 4.59375C14.8073 4.03125 14.7083 3.51042 14.5312 3.03125C14.2188 2.28125 13.6875 1.75 12.9375 1.4375C12.4583 1.26042 11.9375 1.16146 11.375 1.14062C10.5 1.10937 9.36979 1.09375 7.98438 1.09375ZM7.98438 11.1562C8.85938 11.1562 9.60677 10.8464 10.2266 10.2266C10.8464 9.60677 11.1562 8.85937 11.1562 7.98437C11.1562 7.10937 10.8464 6.36198 10.2266 5.74219C9.60677 5.1224 8.85938 4.8125 7.98438 4.8125C7.10938 4.8125 6.36198 5.1224 5.74219 5.74219C5.1224 6.36198 4.8125 7.10937 4.8125 7.98437C4.8125 8.85937 5.1224 9.60677 5.74219 10.2266C6.36198 10.8464 7.10938 11.1562 7.98438 11.1562ZM7.98438 3.92187C9.10938 3.92187 10.0677 4.31771 10.8594 5.10937C11.651 5.90104 12.0469 6.85937 12.0469 7.98437C12.0469 9.10937 11.651 10.0677 10.8594 10.8594C10.0677 11.651 9.10938 12.0469 7.98438 12.0469C6.85938 12.0469 5.90104 11.651 5.10938 10.8594C4.31771 10.0677 3.92188 9.10937 3.92188 7.98437C3.92188 6.85937 4.31771 5.90104 5.10938 5.10937C5.90104 4.31771 6.85938 3.92187 7.98438 3.92187ZM13.1719 3.76562C13.1719 4.02604 13.0781 4.2474 12.8906 4.42969C12.7031 4.61198 12.474 4.70312 12.2031 4.70312C11.9427 4.70312 11.7214 4.61198 11.5391 4.42969C11.3568 4.2474 11.2656 4.02604 11.2656 3.76562C11.2656 3.49479 11.3568 3.26562 11.5391 3.07812C11.7214 2.89062 11.9427 2.79687 12.2031 2.79687C12.4635 2.79687 12.6901 2.89323 12.8828 3.08594C13.0755 3.27865 13.1719 3.50521 13.1719 3.76562Z"/>
</symbol>


<symbol id="logo-2" viewBox="0 0 128 24">
<path d="M5.264 16.538A6.865 6.865 0 014 12.231V5.846a6.95 6.95 0 011.185-4.384C6.055.462 7.398 0 9.374 0s3.24.462 4.03
1.308a5.422 5.422 0 011.186 3.769v1.538h-3.873V4.846a3.691 3.691 0 00-.237-1.538 1.12 1.12 0 00-.456-.473 1.163 1.163
0 00-.65-.143c-.553 0-.948.154-1.106.539a4.846 4.846 0 00-.237 1.692v8.23a3.111 3.111 0 00.316 1.616c.158.385.553.539
 1.106.539s.87-.154 1.027-.539c.18-.52.26-1.067.237-1.615v-1.846h3.873v1.538a5.775 5.775 0 01-1.185 3.846c-.79.923-2.134
 1.385-4.031 1.385-1.897-.077-3.32-.539-4.11-1.539zM19.253.23h4.504l3.32 17.54H23.44l-.632-3.693h-2.608l-.632 3.692h-3.714L19.253.231zm3.24
  11.54l-.948-6.847-.949 6.846h1.897zM29.843 3.154h-2.687V.23h9.404v2.846h-2.687v14.692h-4.03V3.154zM43.752.23h6.955v1.847h-4.505v5.77h3.635v1.768h-3.635v6.462h4.505v1.77h-7.034V.23h.079zM52.761.23H54.5l5.137 11.616V.231h2.055v17.538h-1.58l-5.217-12v12h-2.134V.231zM64.063.23h6.954v1.847h-4.504v5.77h3.635v1.768h-3.635v6.462h4.504v1.77h-6.954V.23zM73.072.23h3.635a6.451 6.451 0 014.03 1.078c.87.692 1.265 1.923 1.265 3.538 0 2.23-.71 3.616-2.212 4.077l2.528
  8.77h-2.45l-2.37-8.231h-1.976v8.23h-2.529V.231h.079zm3.477 7.54a3.524 3.524 0 002.292-.616c.474-.385.711-1.154.711-2.308a4.848 4.848 0 00-.237-1.692 1.975
  1.975 0 00-.869-.923 3.69 3.69 0 00-1.739-.308h-1.106v5.77h.948v.076zM85.163 16.462A7.613 7.613 0 0184.058 12V6.154a12.26 12.26 0 01.395-3.308 3.916 3.916
  0 011.502-2c.882-.508 1.9-.75 2.924-.692 1.66 0 2.845.384 3.556 1.23a5.771 5.771 0 011.107 3.847v.615H91.17v-.538a11.03 11.03 0 00-.158-1.923 1.533 1.533
  0 00-.633-1A2.493 2.493 0 0088.878 2a2.417 2.417 0 00-1.58.462c-.187.152-.338.34-.447.551a1.701 1.701 0 00-.186.68 14.01 14.01 0 00-.158 2.076v6.539a6.818
  6.818 0 00.474 2.923c.316.615.949.846 1.897.846.374.045.754-.018 1.092-.182.337-.165.617-.422.805-.741a6.908
   6.908 0 00.553-3.077v-1.23h-2.292v-1.77h4.584v8.692h-1.58l-.238-2a3.143 3.143 0 01-1.226 1.658 3.288 3.288
   0 01-2.014.573 4.046 4.046 0 01-1.899-.352 3.932 3.932 0 01-1.5-1.186zM98.678 11.615L94.805.308h2.371l2.766
   8.461L102.63.308H105l-3.872 11.307v6.154h-2.371v-6.154h-.08z"/>
   </g>
   <defs>
   <clipPath id="clip0">
   <path fill="#fff" transform="translate(4)" d="M0 0h101v18H0z"/>
   </clipPath>
   <filter id="filter0_d" x="0" y="0" width="109" height="26" filterUnits="userSpaceOnUse" color-interpolation-filters="sRGB">
   <feFlood flood-opacity="0" result="BackgroundImageFix"/>
   <feColorMatrix in="SourceAlpha" values="0 0 0 0 0 0 0 0 0 0 0 0 0 0 0 0 0 0 127 0"/>
   <feOffset dy="4"/>
   <feGaussianBlur stdDeviation="2"/>
   <feColorMatrix values="0 0 0 0 0 0 0 0 0 0 0 0 0 0 0 0 0 0 0.25 0"/>
 <feBlend in2="BackgroundImageFix" result="effect1_dropShadow"/>
 <feBlend in="SourceGraphic" in2="effect1_dropShadow" result="shape"/>
 </filter>
 </defs>
</symbol>

</svg>
