<?xml version="1.0" encoding="utf-8"?>

<!DOCTYPE svg PUBLIC "-//W3C//DTD SVG 1.1//EN" "http://www.w3.org/Graphics/SVG/1.1/DTD/svg11.dtd">
<svg version="1.1" id="Layer_1" xmlns="http://www.w3.org/2000/svg" xmlns:xlink="http://www.w3.org/1999/xlink" x="0px" y="0px"
	 viewBox="0 0 2262.519 1660.3337" enable-background="new 0 0 2262.519 1660.3337" xml:space="preserve">
<g>
	<path d="M673.7958,483.0355c22.2394-2.4708,42.7329,3.4786,62.5427,11.6906c37.1741,15.4102,67.9333,39.4833,94.2069,69.9504
		c15.0845,17.4922,27.2689,36.9787,39.1221,56.3892c10.0996,16.5388,19.7371,33.6551,28.9274,50.8885
		c5.8159,10.9055,12.1679,21.9116,19.3658,32.2872c13.013,18.7582,26.6017,36.7912,44.7543,50.9619
		c18.216,14.2202,53.131,15.0861,67.2239,5.737c12.187-8.0848,15.8204-17.526,11.4095-34.4503
		c-5.527-21.2067-18.8895-37.7931-32.4056-54.3754c-11.8466-14.5339-25.4503-27.6252-35.9431-43.2427
		c-10.0406-14.9448-15.2484-32.0624-18.2518-49.4042c-2.4608-14.2077-4.5628-28.6528-3.9098-43.4018
		c1.0248-23.1469,3.512-45.6904,14.1436-66.8026c13.2709-26.3537,32.637-47.6721,55.476-65.5731
		c8.9482-7.0135,8.1134-16.8094,12.002-25.1001c3.8466-8.2007,4.0109-18.0522,7.2328-26.6383
		c6.4657-17.2307,5.649-35.7963,10.8363-53.2801c2.3402-7.888,1.9683-16.658,2.2904-25.0483
		c0.4326-11.2746,5.2405-15.9239,16.627-16.5192c18.7799-0.9819,31.7858,10.0312,43.9769,21.5948
		c13.6302,12.9285,27.322,25.9292,38.6512,41.1165c4.2693,5.7232,6.6195,12.3161,9.1626,18.7291
		c3.2185,8.1161,8.3517,12.6834,17.1012,12.1436c20.1791-1.2448,39.884,1.3637,59.3184,6.6055
		c15.1661,4.0905,30.4507,8.2022,44.446,15.2717c11.271,5.6932,23.7739,8.1857,34.5253,15.2393
		c11.8599,7.781,25.106,13.4147,35.9923,22.7787c3.1755,2.7313,6.6669,4.438,10.8479,2.8699
		c6.876-2.579,14.2399-3.577,21.0734-5.9393c31.0769-10.7428,62.5225-20.3234,94.354-28.3695
		c18.9176-4.7819,37.3082-12.9389,57.631-11.2939c8.7451,0.7078,12.5997,3.4555,14.567,11.9688
		c3.1196,13.4991,1.2396,26.9703-0.5405,40.2922c-2.5306,18.94-6.9817,37.586-12.4115,55.8833
		c-3.9744,13.3922-9.856,26.034-16.6067,38.4926c-7.1547,13.204-15.4738,25.2881-24.5208,37.0862
		c-2.5747,3.3574-3.3701,7.415-2.9604,11.876c1.5227,16.587-1.1727,32.5522-4.5764,48.917
		c-2.1033,10.1123-2.9072,21.1082-4.6017,31.6569c-3.5162,21.8909-13.9352,40.6541-27.017,58.1136
		c-13.6588,18.2297-30.1006,33.8756-46.3691,49.6869c-7.1235,6.9232-14.9397,13.2801-23.7527,17.3391
		c-19.3215,8.8989-22.5996,24.1723-21.7128,45.1227c1.3306,31.4335,14.6572,58.392,31.0306,84.2548
		c11.085,17.5093,20.0522,36.2944,32.2705,53.1309c8.986,12.3824,21.308,21.6246,30.9209,33.3715
		c19.0781,23.3133,42.4564,41.5405,68.061,56.9093c8.7859,5.2736,18.6707,8.8589,28.3141,12.5304
		c17.2283,6.5591,33.3628,14.8113,48.8392,25.03c21.9186,14.4725,41.9139,31.2473,59.9791,49.9003
		c21.806,22.5155,41.3024,47.0913,58.1249,73.8678c11.6604,18.5597,20.9762,38.2371,30.4396,57.7494
		c6.7133,13.8422,11.0535,29.1116,15.9401,43.9432c9.1938,27.9065,14.8188,56.9547,17.3586,86.2103
		c1.2723,14.6548,1.7659,29.3772,1.501,44.0846c-0.2372,13.1686-2.8663,27.0227,3.8572,39.1124
		c13.985,25.1466,34.1123,40.4277,63.1306,44.7996c13.1573,1.9823,26.2401,4.1821,39.355,2.9647
		c21.7363-2.0175,43.3964-4.8644,64.8397-9.365c31.6719-6.6475,63.9501-14.2128,96.5172-17.0111
		c29.9124-2.5703,60.2515,0.8751,88.96,9.5872c14.5061,4.4022,28.605,10.1462,42.0579,17.1342
		c10.3186,5.36,27.157,12.2494,32.5181,23.4331c1.3325,2.7799,1.6689,5.743,1.1191,8.7758
		c-0.9312,5.1377-3.0027,6.9695-7.0789,3.6252c-31.2854-25.668-71.8608-41.5331-112.426-40.7885
		c-42.5339,0.7806-84.6729,11.9038-124.8075,25.1473c-27.8993,9.2057-55.7866,18.4697-83.7195,27.5953
		c-18.6807,6.1029-41.2983,7.1534-60.801,5.583c-28.8118-2.3201-54.0077-13.0444-78.8685-27.1239
		c-5.4015-3.0592-10.5997-2.9493-14.2286,2.3318c-9.1389,13.3-20.7358,20.92-37.6279,18.9963
		c-4.5671-0.52-8.682,1.7344-10.6338,6.6868c-7.0603,17.915-20.384,28.918-37.2648,37.9735
		c-17.8351,9.5677-35.5677,8.3436-53.9918,5.8394c-2.9773-0.4048-5.9957-1.7155-8.6222-3.2467
		c-5.9531-3.4709-10.8274-2.8992-17.2098,0.4113c-17.2686,8.957-35.8479,10.4513-54.8278,5.861
		c-14.238-3.4434-28.1415-7.8547-41.1484-14.7059c-10.566-5.5654-19.5426-13.8243-31.8422-16.6047
		c-5.1163-1.1565-8.6847-6.8271-11.0392-12.1719c-7.0497-16.0028-8.6532-32.6095-4.8488-49.5736
		c1.0109-4.5082,3.4856-8.8484,5.9883-12.8252c4.0642-6.4583,0.4036-8.5814-4.9513-9.8761
		c-12.6213-3.0513-24.8683-7.052-37.0629-11.6252c-8.2671-3.1005-16.6729-6.4755-25.4492-8.3468
		c-5.2544-1.1204-8.6183,1.0203-10.715,5.8193c-2.4829,5.6833-3.1445,11.705-1.0701,17.3376
		c6.1084,16.5845-0.5505,29.7238-10.7933,41.7671c-13.1791,15.4954-30.083,23.0669-50.5839,22.2216
		c-3.6583-0.151-7.3286,0.009-10.9927-0.0302c-13.7751-0.1475-13.2318,0.0197-17.4852,13.1703
		c-6.0543,18.7186-24.4894,38.1016-46.4753,39.9485c-15.7236,1.321-31.3842,0.7362-47.0305,1.8584
		c-2.4877,0.1783-5.6881,0.5979-7.4298-0.6589c-11.0387-7.9666-24.5613-6.7235-36.5524-10.6541
		c-9.6259-3.1553-18.845-8.7932-26.9762-14.9929c-14.2595-10.8722-28.4094-22.2046-36.8259-38.7909
		c-0.4886-0.9628-1.1866-2.1964-2.0725-2.5182c-5.3014-1.9257-10.0781-4.5999-10.5763-10.7756
		c-0.6626-8.2139,0.2117-16.3889,4.6437-23.6156c9.8492-16.0599,24.6334-27.6306,37.6211-40.8273
		c7.9631-8.0914,17.6385-14.0305,27.7284-18.7153c15.106-7.0138,24.0612-20.1816,33.7457-32.285
		c10.1322-12.6626,17.5997-27.4424,21.5663-43.2828c3.8412-15.3401,2.3199-29.1085-11.1191-41.2529
		c-14.0399-12.6875-24.0308-29.3264-34.0936-45.4414c-8.5544-13.6995-16.896-27.5704-24.5295-41.796
		c-8.0527-15.0067-14.5768-30.844-22.8298-45.7303c-8.8402-15.9457-15.6731-32.8289-23.2241-49.2993
		c-5.86-12.7821-11.6165-25.851-16.3086-39.2601c-4.709-13.4568-10.4518-26.5558-15.0321-40.0526
		c-5.9109-17.4182-12.0698-34.7389-16.8019-52.5889c-3.4539-13.0276-7.8604-25.7875-9.9642-39.1743
		c-0.7927-5.0438-6.184-5.2883-9.2495-7.9888c-19.9743-17.5959-42.4114-32.0145-63.702-47.8672
		c-18.4716-13.7538-37.7979-26.2898-51.4392-45.0724c-6.9974-9.6348-12.1268-20.7834-17.0754-31.7122
		c-7.1595-15.8115-16.3835-30.5238-23.8798-46.0739c-11.1995-23.2325-25.0997-44.872-37.7718-67.2106
		c-8.3995-14.8068-19.1888-28.2896-29.257-42.1108c-15.6224-21.4457-33.9069-40.4313-54.6454-56.9749
		c-12.5282-9.994-26.2418-16.2986-43.0566-15.6267c-17.6176,0.704-35.5116,1.8228-52.2509-6.2874
		c-7.4109-3.5906-13.2368-8.5948-16.4396-16.1506c-1.7597-4.1514-4.2968-6.0798-8.8087-6.4699
		c-17.7286-1.5328-30.7092-15.5952-31.4908-33.5028c-0.6116-14.0145,5.0681-25.6904,11.0356-38.0897
		c7.8104-16.2285,19.9413-27.6963,33.6826-37.6184C629.0499,485.8537,650.7121,480.3539,673.7958,483.0355z"/>
	<path d="M401.8477,338.005c-0.6614,10.6797,3.3386,21.9286-3.3603,32.0754c-5.1276,7.7667-11.3864,13.6416-20.3259,16.8112
		c-10.2187,3.6231-11.3517,10.3622-3.2169,17.3994c13.0189,11.2623,24.5328,23.9516,32.1958,39.3506
		c4.9064,9.8594,5.2341,21.2983,5.5988,32.2153c0.7419,22.2089-1.8058,43.9878-15.7256,62.3875
		c-5.8677,7.7561-13.1387,14.3359-22.4367,18.708c-16.7648,7.8831-29.7057,1.4285-42.1925-9.194
		c-5.7658-4.9049-11.8534-9.4602-18.021-13.8573c-7.8292-5.5818-12.7482-3.1813-14.9128,6.3395
		c-2.4052,10.5792-0.4859,22.0973-7.2847,31.7753c-2.3138,3.2936-4.5305,5.1831-8.7631,5.2397
		c-38.6659,0.5166-67.5079-16.8856-88.5587-48.412c-9.7138-14.5478-14.4699-31.1487-19.5082-47.6987
		c-2.7145-8.9167-10.4129-15.0704-17.687-19.8577c-22.0576-14.5171-46.1706-24.5866-72.2081-30.0057
		c-9.2477-1.9247-18.2434-5.2393-27.1937-8.3771c-21.0016-7.3628-20.2076-28.5438-10.8945-41.4171
		c13.3994-18.5217,29.5093-32.3111,55.0628-34.2031c30.1866-2.235,57.2179,4.3179,83.1276,18.4826
		c7.5178,4.11,11.899,2.7661,14.8752-5.3053c2.175-5.8984,6.2492-5.3776,10.9912-3.8699
		c13.5657,4.3132,13.3132,4.1597,18.7216-9.4916c9.1579-23.1155,17.3855-47.178,31.7724-67.2669
		c16.9562-23.6765,37.1745-44.9134,64.6059-58.0754c9.6607-4.6353,19.7145-7.3398,29.5488-8.8493
		c17.2234-2.6438,29.5569,5.2177,32.5064,27.894c3.1139,23.9406,9.2704,47.2771,13.0654,71.0468
		C402.989,320.3624,401.8477,329.2748,401.8477,338.005z"/>
	<path d="M756.588,215.3273c-3.858-0.406-7.3602-0.2656-10.5406-1.2094c-7.9262-2.3524-14.9235-5.2856-20.8724,4.7868
		c-2.2188,3.7568-9.9091,5.7549-15.1981,5.9443c-14.8061,0.5303-29.879,2.6764-44.2983-3.1927
		c-7.8943-3.2133-11.2793-9.6427-13.1842-17.383c-2.0626-8.3807-3.8171-9.1332-11.4429-5.3829
		c-15.8212,7.7807-31.316,1.8921-37.9966-14.4729c-5.3131-13.0153-10.0412-26.1858-10.2514-40.4948
		c-0.0207-1.4077-0.5358-3.1752,0.111-4.1691c6.7468-10.3686,2.3901-20.0718-0.4448-30.5296
		c-5.9705-22.0241-9.0658-44.5684-7.1017-67.5571c0.7549-8.8372,5.1288-12.7842,13.799-11.1321
		c17.7217,3.3769,33.2705,10.7684,46.546,23.5095c16.5716,15.9045,31.2202,33.014,40.5292,54.2168
		c1.7507,3.9874,4.2408,5.6848,8.6312,4.3794c5.5658-1.6549,9.4012-0.218,10.3387,6.1765c0.7226,4.9287,4.3486,6.1422,8.6412,6.198
		c19.8079,0.2576,38.4337,5.3187,57.3316,11.2127c19.3049,6.021,31.3393,19.3478,42.5034,33.999
		c8.9458,11.74,7.3688,19.8426-4.5849,27.5528C793.1085,208.0963,775.2531,213.8203,756.588,215.3273z"/>
</g>
</svg>
